<?xml version="1.0" encoding="UTF-8"?>
<svg width="150px" height="150px" viewBox="0 0 150 150" version="1.1" xmlns="http://www.w3.org/2000/svg" xmlns:xlink="http://www.w3.org/1999/xlink">
    <title>Platform  Settings</title>
    <g id="Page-1" stroke="none" stroke-width="1" fill="none" fill-rule="evenodd">
        <g id="Artboard" transform="translate(-336.000000, -77.000000)">
            <g id="Platform--Settings" transform="translate(336.000000, 77.000000)">
                <rect id="Rectangle-Copy-23" x="0" y="0" width="150" height="150"></rect>
                <g id="Group-6-Copy" transform="translate(4.000000, 6.000000)">
                    <path d="M13.0460941,14.3613487 C14.9616989,14.3613487 16.5146035,12.8084442 16.5146035,10.8928394 C16.5146035,8.97723453 14.9616989,7.42432998 13.0460941,7.42432998 C11.1304893,7.42432998 9.57758471,8.97723453 9.57758471,10.8928394 C9.57758471,12.8084442 11.1304893,14.3613487 13.0460941,14.3613487 Z" id="Oval" fill="#F2533C"></path>
                    <path d="M23.1584356,14.3613487 C25.0740404,14.3613487 26.6269449,12.8084442 26.6269449,10.8928394 C26.6269449,8.97723453 25.0740404,7.42432998 23.1584356,7.42432998 C21.2428307,7.42432998 19.6899262,8.97723453 19.6899262,10.8928394 C19.6899262,12.8084442 21.2428307,14.3613487 23.1584356,14.3613487 Z" id="Oval-Copy-15" fill="#F2533C"></path>
                    <path d="M33.249453,14.3613487 C35.1650578,14.3613487 36.7179623,12.8084442 36.7179623,10.8928394 C36.7179623,8.97723453 35.1650578,7.42432998 33.249453,7.42432998 C31.3338481,7.42432998 29.7809436,8.97723453 29.7809436,10.8928394 C29.7809436,12.8084442 31.3338481,14.3613487 33.249453,14.3613487 Z" id="Oval-Copy-16" fill="#F2533C"></path>
                    <path d="M10.0867488,30.2602464 L121.040986,30.2602464 L121.040986,65.5776206 L87.3840587,64.7054546 C77.6385045,64.452914 69.5334473,72.148522 69.2809067,81.8940761 C69.2769577,82.0464659 69.274983,82.1989004 69.274983,82.3513414 L69.274983,113.475924 L69.274983,113.475924 L17.6518104,113.475924 C13.4737422,113.475924 10.0867488,110.088931 10.0867488,105.910862 L10.0867488,30.2602464 L10.0867488,30.2602464 Z" id="Rectangle" fill="#F0F0F0"></path>
                    <path d="M69.3009035,113.514852 L8.98659247,113.514852 C4.0234345,113.514852 -2.04261383e-12,109.491418 -2.04261383e-12,104.52826 L-2.04261383e-12,8.98659247 C-2.04261383e-12,4.0234345 4.0234345,0 8.98659247,0 L110.83464,0 C115.797798,0 119.821233,4.0234345 119.821233,8.98659247 L119.821233,59.9421792" id="Path" stroke="#717375" stroke-width="5.0433744"></path>
                    <line x1="2.54430846e-12" y1="21.7856787" x2="119.821233" y2="21.7856787" id="Path" stroke="#717375" stroke-width="5.0433744"></line>
                    <line x1="18.2876389" y1="53.3175821" x2="63.0638068" y2="53.3175821" id="Path-Copy-20" stroke="#717375" stroke-width="5.0433744" stroke-linecap="round"></line>
                    <line x1="18.2876389" y1="65.9303435" x2="40.3599713" y2="65.9303435" id="Path-Copy-21" stroke="#717375" stroke-width="5.0433744" stroke-linecap="round"></line>
                    <g id="Group-4" transform="translate(50.433744, 50.433744)">
                        <path d="M88.9272355,37.498042 L80.4734417,36.0812857 C79.655932,32.9349829 78.3925078,29.9174761 76.6831693,27.0471647 L81.643967,20.1473778 C82.5543755,18.8594176 82.4243172,17.129871 81.2909514,16.0075056 L78.2810292,13.0635966 L75.2896868,10.101288 C74.1563211,9.0893193 72.409823,8.96052328 71.1278191,9.843696 L64.1604067,14.7747437 C61.2805429,13.1003954 58.2148814,11.8308346 55.0377413,11.0396591 L53.6070993,2.66791761 C53.3284028,1.12236534 51.9906596,-2.15011983e-13 50.4299592,-2.15011983e-13 L46.2123522,-2.15011983e-13 L41.9947452,-2.15011983e-13 C40.4340448,-2.15011983e-13 39.0777219,1.12236534 38.8176052,2.66791761 L37.3869631,11.0396591 C34.1540838,11.8492341 31.0141032,13.1371943 28.0785001,14.9219392 L21.166827,10.0644892 C19.8662433,9.16291703 18.1197453,9.29171305 16.9863795,10.4140784 L13.9950371,13.3763869 L11.0036947,16.3386954 C9.88890869,17.4426613 9.74027056,19.1906073 10.6506791,20.4785676 L15.6486363,27.4519522 C13.9578776,30.3038641 12.731613,33.3949687 11.932683,36.4860732 L3.53462854,37.7924329 C1.97392816,38.0684244 0.8405624,39.3931834 0.8405624,40.9387357 L0.8405624,45.1154067 L0.859142167,49.3104772 C0.859142167,50.8560294 1.99250792,52.199188 3.55320831,52.45678 L12.0627414,53.8735363 C12.8988309,57.0014397 14.1808348,60.0189465 15.908753,62.852459 L11.0036947,69.6970476 C10.0932861,70.9850078 10.2233445,72.7145544 11.3567102,73.8369197 L14.3480527,76.7992283 L17.3393951,79.7615368 C18.4541811,80.8471032 20.2192589,81.0126981 21.5198425,80.111126 L28.561574,75.1616788 C29.2118659,75.5480669 29.8807375,75.8976561 30.5496091,76.2288459 C30.7354067,76.320843 30.9212044,76.4128402 31.1070021,76.4864379 C31.6643951,76.74403 32.2403678,77.001622 32.7977608,77.2408146 C32.9278192,77.2960129 33.0578775,77.3512112 33.1879359,77.4064095 C33.8753873,77.682401 34.5814184,77.939993 35.2874495,78.1607862 C35.3060293,78.1607862 35.3246091,78.1791856 35.3617686,78.1791856 C36.0677997,78.4183782 36.7924106,78.620772 37.5170215,78.8047663 C37.9815157,78.9151629 38.4460098,79.0255595 38.910504,79.1175567 L38.910504,63.8828271 C38.910504,61.1597112 37.6656596,58.6021902 35.5847258,56.7990459 C32.0545701,53.7447402 29.8249982,49.2736783 29.8249982,44.2874323 C29.8249982,38.2340192 33.1136168,32.9349829 38.0000954,30.0278727 C38.353111,29.8254789 38.7990254,30.083071 38.7990254,30.4878585 L38.7990254,40.0003647 C38.7990254,42.8338772 41.140076,45.1522056 44.0199398,45.1522056 L48.3861849,45.1522056 C51.2660487,45.1522056 53.6070993,42.8338772 53.6070993,40.0003647 L53.6070993,29.9910738 C53.6070993,29.6046857 54.0344339,29.3470937 54.3874495,29.5126886 C59.7941616,32.2726033 63.5101149,37.8476312 63.5101149,44.2874323 C63.5101149,49.5312704 61.0575857,54.204726 57.211574,57.2406323 C54.9262627,59.062176 53.55136,61.7668925 53.55136,64.6556033 L53.55136,79.0991572 C54.1459125,78.9703612 54.7404651,78.8415652 55.3350176,78.6759703 C56.0038892,78.491976 56.6727608,78.2895822 57.3416324,78.0871885 C57.5460098,78.0135907 57.7318075,77.9583925 57.9361849,77.8847947 C58.3820993,77.7375993 58.8280137,77.553605 59.2739281,77.3880101 C59.6083639,77.259214 59.9613795,77.1120186 60.2958153,76.9648231 C60.5187725,76.872826 60.7417296,76.7624294 60.9646868,76.6520328 C61.429181,76.4312396 61.8936752,76.2288459 62.3581693,75.9896533 C62.9713016,75.6768629 63.5844339,75.3640726 64.1789865,75.0144834 L71.1463989,79.9271317 C72.4469826,80.8287038 74.1934806,80.6999078 75.3268464,79.5775425 L78.3181888,76.6152339 L81.3095312,73.6529254 C82.4243172,72.5489595 82.5729553,70.8010135 81.6625467,69.5130533 L76.7017491,62.6132663 C78.3925078,59.7613544 79.6745117,56.7254482 80.4734417,53.5791453 L88.9272355,52.1623891 C90.4879358,51.8863976 91.6213016,50.5616385 91.6213016,48.9976868 L91.6213016,44.8210158 L91.6213016,40.6443448 C91.6213016,39.0987925 90.4879358,37.755634 88.9272355,37.498042 Z" id="Path-Copy" fill="#FFAB93"></path>
                        <path d="M46.230932,60.5204928 C44.837368,60.5204928 43.7092448,61.4784522 43.7092448,62.6618138 L43.7092448,90.7807392 L46.5406129,90.7807392 L48.7526192,90.7807392 L48.7526192,62.6618138 C48.7526192,61.4784522 47.624496,60.5204928 46.230932,60.5204928 Z" id="Path" fill="#E84B2C" fill-rule="nonzero"></path>
                        <path d="M52.3738253,4.30018727 L43.7195246,4.30018727 L40.9004368,15.2025041 L29.7005397,19.6608353 L25.5191398,17.7276342 C24.5242195,17.2676492 23.3460983,17.5030547 22.6043394,18.3100532 L20.5036067,20.5955509 C19.7542523,21.410813 19.624434,22.6195494 20.1835768,23.5753442 L22.4131556,27.3865703 L22.4131556,27.3865703 L16.4435783,40.3469952 L11.352836,41.1392396 C10.1246476,41.3303759 9.21891764,42.3879619 9.21891764,43.6309342 L9.21891764,45.9672882 C9.21891764,47.1152136 9.99421495,48.118279 11.1050875,48.40758 L16.4435783,49.7978659 L16.4435783,49.7978659 L22.4131556,61.8430156 L19.6539453,65.7597948 C18.9068458,66.8203242 19.0862689,68.2746503 20.0687227,69.1218013 L22.3190043,71.0621757 C23.2133439,71.8333476 24.5230826,71.88058 25.4706476,71.175832 L28.7912152,68.7061717 L28.7912152,68.7061717 L37.9726265,73.2759034 L37.9726265,79.066379 L29.7005397,76.0828177 L20.4338156,80.6939904 L11.676098,73.2759034 L16.053869,62.852459 L12.1708179,53.8735363 L2.37781666,51.4545742 L0.8405624,40.3469952 L6.96355067,37.2456424 L10.8579474,37.2456424 L15.0971362,27.3865703 L10.8579474,18.0768758 L19.2428221,8.72659264 L26.9410347,15.2025041 L37.0682616,10.7362333 L40.9004368,-2.15294449e-13 C46.7613169,0.0785728484 50.5857797,0.452935986 52.3738253,1.12308941 C54.1618708,1.79324284 54.1618708,2.85227546 52.3738253,4.30018727 Z" id="Path-2" fill="#FFFFFF"></path>
                        <path d="M88.9272355,37.498042 L80.4734417,36.0812857 C79.655932,32.9349829 78.3925078,29.9174761 76.6831693,27.0471647 L81.643967,20.1473778 C82.5543755,18.8594176 82.4243172,17.129871 81.2909514,16.0075056 L78.2810292,13.0635966 L75.2896868,10.101288 C74.1563211,9.0893193 72.409823,8.96052328 71.1278191,9.843696 L64.1604067,14.7747437 C61.2805429,13.1003954 58.2148814,11.8308346 55.0377413,11.0396591 L53.6070993,2.66791761 C53.3284028,1.12236534 51.9906596,-2.15011983e-13 50.4299592,-2.15011983e-13 L46.2123522,-2.15011983e-13 L41.9947452,-2.15011983e-13 C40.4340448,-2.15011983e-13 39.0777219,1.12236534 38.8176052,2.66791761 L37.3869631,11.0396591 C34.1540838,11.8492341 31.0141032,13.1371943 28.0785001,14.9219392 L21.166827,10.0644892 C19.8662433,9.16291703 18.1197453,9.29171305 16.9863795,10.4140784 L13.9950371,13.3763869 L11.0036947,16.3386954 C9.88890869,17.4426613 9.74027056,19.1906073 10.6506791,20.4785676 L15.6486363,27.4519522 C13.9578776,30.3038641 12.731613,33.3949687 11.932683,36.4860732 L3.53462854,37.7924329 C1.97392816,38.0684244 0.8405624,39.3931834 0.8405624,40.9387357 L0.8405624,45.1154067 L0.859142167,49.3104772 C0.859142167,50.8560294 1.99250792,52.199188 3.55320831,52.45678 L12.0627414,53.8735363 C12.8988309,57.0014397 14.1808348,60.0189465 15.908753,62.852459 L11.0036947,69.6970476 C10.0932861,70.9850078 10.2233445,72.7145544 11.3567102,73.8369197 L14.3480527,76.7992283 L17.3393951,79.7615368 C18.4541811,80.8471032 20.2192589,81.0126981 21.5198425,80.111126 L28.561574,75.1616788 C29.2118659,75.5480669 29.8807375,75.8976561 30.5496091,76.2288459 C30.7354067,76.320843 30.9212044,76.4128402 31.1070021,76.4864379 C31.6643951,76.74403 32.2403678,77.001622 32.7977608,77.2408146 C32.9278192,77.2960129 33.0578775,77.3512112 33.1879359,77.4064095 C33.8753873,77.682401 34.5814184,77.939993 35.2874495,78.1607862 C35.3060293,78.1607862 35.3246091,78.1791856 35.3617686,78.1791856 C36.0677997,78.4183782 36.7924106,78.620772 37.5170215,78.8047663 C37.9815157,78.9151629 38.4460098,79.0255595 38.910504,79.1175567 L38.910504,63.8828271 C38.910504,61.1597112 37.6656596,58.6021902 35.5847258,56.7990459 C32.0545701,53.7447402 29.8249982,49.2736783 29.8249982,44.2874323 C29.8249982,38.2340192 33.1136168,32.9349829 38.0000954,30.0278727 C38.353111,29.8254789 38.7990254,30.083071 38.7990254,30.4878585 L38.7990254,40.0003647 C38.7990254,42.8338772 41.140076,45.1522056 44.0199398,45.1522056 L48.3861849,45.1522056 C51.2660487,45.1522056 53.6070993,42.8338772 53.6070993,40.0003647 L53.6070993,29.9910738 C53.6070993,29.6046857 54.0344339,29.3470937 54.3874495,29.5126886 C59.7941616,32.2726033 63.5101149,37.8476312 63.5101149,44.2874323 C63.5101149,49.5312704 61.0575857,54.204726 57.211574,57.2406323 C54.9262627,59.062176 53.55136,61.7668925 53.55136,64.6556033 L53.55136,79.0991572 C54.1459125,78.9703612 54.7404651,78.8415652 55.3350176,78.6759703 C56.0038892,78.491976 56.6727608,78.2895822 57.3416324,78.0871885 C57.5460098,78.0135907 57.7318075,77.9583925 57.9361849,77.8847947 C58.3820993,77.7375993 58.8280137,77.553605 59.2739281,77.3880101 C59.6083639,77.259214 59.9613795,77.1120186 60.2958153,76.9648231 C60.5187725,76.872826 60.7417296,76.7624294 60.9646868,76.6520328 C61.429181,76.4312396 61.8936752,76.2288459 62.3581693,75.9896533 C62.9713016,75.6768629 63.5844339,75.3640726 64.1789865,75.0144834 L71.1463989,79.9271317 C72.4469826,80.8287038 74.1934806,80.6999078 75.3268464,79.5775425 L78.3181888,76.6152339 L81.3095312,73.6529254 C82.4243172,72.5489595 82.5729553,70.8010135 81.6625467,69.5130533 L76.7017491,62.6132663 C78.3925078,59.7613544 79.6745117,56.7254482 80.4734417,53.5791453 L88.9272355,52.1623891 C90.4879358,51.8863976 91.6213016,50.5616385 91.6213016,48.9976868 L91.6213016,44.8210158 L91.6213016,40.6443448 C91.6213016,39.0987925 90.4879358,37.755634 88.9272355,37.498042 Z" id="Path" stroke="#E64C35" stroke-width="5.0433744" stroke-linecap="round" stroke-linejoin="round"></path>
                    </g>
                </g>
            </g>
        </g>
    </g>
</svg>