<?xml version="1.0" encoding="UTF-8"?>
<svg width="154px" height="150px" viewBox="0 0 154 150" version="1.1" xmlns="http://www.w3.org/2000/svg" xmlns:xlink="http://www.w3.org/1999/xlink">
    <title>BuddyBoss Platform</title>
    <g id="Page-1" stroke="none" stroke-width="1" fill="none" fill-rule="evenodd">
        <g id="Artboard" transform="translate(-94.000000, -77.000000)">
            <g id="Group-75" transform="translate(94.000000, 77.000000)">
                <rect id="Rectangle-Copy-15" x="0" y="0" width="150" height="150"></rect>
                <g id="Group-3-Copy" transform="translate(5.000000, 18.000000)">
                    <path d="M13.5328719,14.8972015 C15.519952,14.8972015 17.1307988,13.2863548 17.1307988,11.2992746 C17.1307988,9.31219443 15.519952,7.70134768 13.5328719,7.70134768 C11.5457917,7.70134768 9.93494497,9.31219443 9.93494497,11.2992746 C9.93494497,13.2863548 11.5457917,14.8972015 13.5328719,14.8972015 Z" id="Oval" fill="#F2533C"></path>
                    <path d="M24.0225265,14.8972015 C26.0096067,14.8972015 27.6204534,13.2863548 27.6204534,11.2992746 C27.6204534,9.31219443 26.0096067,7.70134768 24.0225265,7.70134768 C22.0354464,7.70134768 20.4245996,9.31219443 20.4245996,11.2992746 C20.4245996,13.2863548 22.0354464,14.8972015 24.0225265,14.8972015 Z" id="Oval-Copy-15" fill="#F2533C"></path>
                    <path d="M34.4900615,14.8972015 C36.4771416,14.8972015 38.0879884,13.2863548 38.0879884,11.2992746 C38.0879884,9.31219443 36.4771416,7.70134768 34.4900615,7.70134768 C32.5029813,7.70134768 30.8921346,9.31219443 30.8921346,11.2992746 C30.8921346,13.2863548 32.5029813,14.8972015 34.4900615,14.8972015 Z" id="Oval-Copy-16" fill="#F2533C"></path>
                    <path d="M10.4631071,31.3893212 L125.557285,31.3893212 L125.557285,42.2414981 C96.9675656,35.0067135 77.1023796,39.5164264 65.9617266,55.7706369 C54.8210736,72.0248473 54.8210736,88.3116586 65.9617266,104.631071 L18.3104374,104.631071 C13.9764765,104.631071 10.4631071,101.117701 10.4631071,96.7837403 L10.4631071,31.3893212 L10.4631071,31.3893212 Z" id="Rectangle" fill="#F0F0F0"></path>
                    <path d="M72.4613859,104.649275 C58.4303893,104.654203 37.3838946,104.661595 9.32190154,104.671451 C4.17355748,104.671451 0,100.497894 0,95.3495499 L0,9.32190154 C0,4.17355748 4.17355748,0 9.32190154,0 L114.970119,0 C120.118463,0 124.292021,4.17355748 124.292021,9.32190154 C124.292021,27.118743 124.292021,40.4663741 124.292021,49.3647948" id="Path" stroke="#717375" stroke-width="5.23155353"></path>
                    <line x1="2.63924207e-12" y1="22.5985492" x2="124.292021" y2="22.5985492" id="Path" stroke="#717375" stroke-width="5.23155353"></line>
                    <g id="Group" transform="translate(43.009432, 64.580520) rotate(-90.000000) translate(-43.009432, -64.580520) translate(23.509432, 47.080520)" stroke="#717375" stroke-linecap="round" stroke-width="5.23155353">
                        <line x1="1.63558664e-12" y1="1.30788838" x2="38.5995326" y2="1.30788838" id="Path-Copy-20"></line>
                        <line x1="2.82510419e-12" y1="17.0070357" x2="15.0485682" y2="17.0070357" id="Path-Copy-21"></line>
                        <line x1="2.82510419e-12" y1="32.7016963" x2="22.8958985" y2="32.7016963" id="Path-Copy-22"></line>
                    </g>
                    <g id="Group-2" transform="translate(65.394419, 43.149144)">
                        <g id="Group-7" transform="translate(0.000000, 3.934838)">
                            <path d="M40.6898608,69.1727634 C58.6677725,69.1727634 70.6259727,54.5987864 70.6259727,36.6208747 C70.6259727,26.4984513 43.8675998,41.0785519 36.6208747,35.1082197 C30.997067,30.4749543 37.9544862,4.15457107 36.6218098,4.32071432 C20.5638702,6.32263942 8.13797216,20.0206451 8.13797216,36.6208747 C8.13797216,54.5987864 22.7119491,69.1727634 40.6898608,69.1727634 Z" id="fill" fill="#FFAB93"></path>
                            <path d="M35.3556105,70.2152309 C54.4270369,70.2152309 69.9467005,55.0083269 70.4505973,36.058523 C70.4561982,35.847892 70.4604078,35.5309228 70.4632259,35.1076154 L35.3556105,35.1076154 L35.3556105,0.00120846523 C15.9662099,-7.61888382e-14 0.247995053,15.7182148 0.247995053,35.1076154 C0.247995053,54.497016 15.9662099,70.2152309 35.3556105,70.2152309 Z" id="Oval" stroke="#E64C35" stroke-width="5.23155353" stroke-linecap="round" stroke-linejoin="round"></path>
                        </g>
                        <path d="M69.5039245,24.3898178 L56.3076921,1.74385118 C56.1027686,1.93502206 55.9516728,2.08569166 55.8544045,2.19585998 C50.3898642,8.38512943 47.0739464,16.5162855 47.0739464,25.4219156 C47.0739464,29.2338087 47.6814598,32.9038093 48.804947,36.3403781 C48.9081599,36.6560898 55.807819,32.6725698 69.5039245,24.3898178 Z" id="Oval" stroke="#E64C35" stroke-width="5.23155353" stroke-linecap="round" stroke-linejoin="round" transform="translate(58.288935, 19.050809) rotate(-240.000000) translate(-58.288935, -19.050809) "></path>
                    </g>
                </g>
            </g>
        </g>
    </g>
</svg>