<?xml version="1.0" encoding="UTF-8"?>
<svg width="150px" height="150px" viewBox="0 0 150 150" version="1.1" xmlns="http://www.w3.org/2000/svg" xmlns:xlink="http://www.w3.org/1999/xlink">
    <title>BuddyBoss Theme</title>
    <g id="Page-1" stroke="none" stroke-width="1" fill="none" fill-rule="evenodd">
        <g id="BuddyBoss-Theme">
            <rect id="Rectangle-Copy-25" x="0" y="0" width="150" height="150"></rect>
            <g id="Group-79" transform="translate(4.000000, 10.000000)">
                <g id="Group-67-Copy" transform="translate(0.000000, 33.478152)">
                    <g id="Group-64">
                        <path d="M113.310668,48.9296066 L113.310668,65.091473 C113.310668,70.3881919 109.013214,74.682031 103.712037,74.682031 L17.3243583,74.682031 C12.0231808,74.682031 7.72572735,70.3881919 7.72572735,65.091473 L7.72572735,14.741043 C7.72572735,9.44432401 12.0231808,5.1504849 17.3243583,5.1504849 C20.5570885,5.1504849 22.9062574,5.1504849 24.3718651,5.1504849 C24.7626734,5.1504849 25.3381664,5.1504849 26.0983441,5.1504849 L41.9762023,5.1504849 L42.5360654,5.1504849 C43.424978,5.1504849 44.0887323,5.1504849 44.5273285,5.1504849 C45.3447911,5.1504849 48.610655,5.1504849 54.3249202,5.1504849 L55.7467593,31.8611349 C56.2561795,41.4310978 64.1644589,48.9296066 73.7479707,48.9296066 L113.310668,48.9296066 L113.310668,48.9296066 Z" id="Path-Copy-19" fill="#F0F0F0"></path>
                        <path d="M18.9936278,19.9605585 C20.949916,19.9605585 22.5358009,18.3746735 22.5358009,16.4183854 C22.5358009,14.4620972 20.949916,12.8762123 18.9936278,12.8762123 C17.0373396,12.8762123 15.4514547,14.4620972 15.4514547,16.4183854 C15.4514547,18.3746735 17.0373396,19.9605585 18.9936278,19.9605585 Z" id="Oval" fill="#717375"></path>
                        <path d="M29.2945976,19.9605585 C31.2508858,19.9605585 32.8367707,18.3746735 32.8367707,16.4183854 C32.8367707,14.4620972 31.2508858,12.8762123 29.2945976,12.8762123 C27.3383094,12.8762123 25.7524245,14.4620972 25.7524245,16.4183854 C25.7524245,18.3746735 27.3383094,19.9605585 29.2945976,19.9605585 Z" id="Oval-Copy-9" fill="#717375"></path>
                        <path d="M90.3396604,0 C93.1552243,0 97.3785702,0 103.009698,0 C108.698767,0 113.310668,4.61190127 113.310668,10.3009698 L113.310668,64.3810612 C113.310668,70.0701298 108.698767,74.682031 103.009698,74.682031 L10.3009698,74.682031 C4.61190127,74.682031 0,70.0701298 0,64.3810612 L0,10.3009698 C0,4.61190127 4.61190127,0 10.3009698,0 C14.8398454,0 33.7249567,0 66.9563037,0" id="Shape" stroke="#717375" stroke-width="5.1504849" stroke-linejoin="round"></path>
                        <path d="M38.6286367,95.2839706 L74.6820311,95.2839706 L38.6286367,95.2839706 Z" id="Rectangle-Copy-4" stroke="#717375" stroke-width="5.1504849" stroke-linejoin="round"></path>
                        <path d="M0,56.6553339 L113.310668,56.6553339 L0,56.6553339 Z" id="Rectangle-Copy-6" stroke="#717375" stroke-width="5.1504849" stroke-linejoin="round"></path>
                        <line x1="56.6553339" y1="74.682031" x2="56.6553339" y2="95.2839707" id="Path-11" stroke="#717375" stroke-width="5.1504849" stroke-linecap="round" stroke-linejoin="round"></line>
                    </g>
                    <path d="M56.7157194,68.890165 C58.6720076,68.890165 60.2578925,67.3042801 60.2578925,65.3479919 C60.2578925,63.3917037 58.6720076,61.8058188 56.7157194,61.8058188 C54.7594312,61.8058188 53.1735463,63.3917037 53.1735463,65.3479919 C53.1735463,67.3042801 54.7594312,68.890165 56.7157194,68.890165 Z" id="Oval" fill="#F2533C"></path>
                </g>
                <g id="Group-80" transform="translate(64.381061, 12.876212)">
                    <path d="M11.4841876,5.154049 L56.8641407,5.19708227 C61.0128311,5.20814801 64.3739297,8.57243541 64.3810612,12.7211344 L64.3810612,47.9551905 C64.3810612,54.1824141 59.332899,59.2305763 53.1056754,59.2305763 L13.3634203,59.2305763 C10.2498085,59.2305764 7.72572735,56.7064952 7.72572735,53.5928834 L7.72572735,8.90894685 C7.72216494,6.83320563 9.40488567,5.1504849 11.4806269,5.1504849 C11.4818149,5.1504849 11.483003,5.15048546 11.4841876,5.154049 Z" id="Rectangle-Copy" fill="#F0F0F0"></path>
                    <path d="M54.0800914,0 C59.76916,0 64.3810612,4.61190127 64.3810612,10.3009698 L64.3810612,48.9296066 C64.3810612,54.6186751 59.76916,59.2305763 54.0800914,59.2305763 L10.3009698,59.2305763 C4.61190127,59.2305763 0,54.6186751 0,48.9296066 L0,10.3009698 C0,4.61190127 4.61190127,0 10.3009698,0 L13.9268494,0 L13.9268494,0" id="Shape" stroke="#717375" stroke-width="5.1504849" stroke-linejoin="round"></path>
                    <path d="M24.9535305,31.9947206 C24.9828996,29.6523085 26.6733062,27.6987127 28.8747366,27.2718419 L28.2978418,30.3550734 C28.1963083,30.8874211 28.1371503,31.4350732 28.1295983,31.9947206 C28.1077812,33.7522536 28.5772686,35.3952099 29.4084166,36.7937081 C26.8990293,36.6629996 24.9208048,34.5638045 24.9535305,31.9947206 M37.3582362,22.7851485 C36.1801122,22.7851485 35.0506571,23.0151292 34.0105683,23.4287638 L34.1616099,22.6221764 C34.1616099,22.6221764 35.1790424,18.2877005 31.0086178,18.0266971 C30.6759069,18.0283517 30.571856,18.1971146 30.5290609,18.4246135 L29.7125975,22.7909393 C28.576849,22.8062438 27.4885109,23.0291928 26.4836651,23.4287638 L26.6347066,22.6221764 C26.6347066,22.6221764 27.6521392,18.2877005 23.4817145,18.0266971 C23.1506819,18.027938 23.0457919,18.19546 23.0034164,18.4208908 L20.7709385,30.3550734 C20.6694051,30.8874211 20.609408,31.4350732 20.6026951,31.9947206 C20.5385024,37.0724978 24.5734092,41.2038792 29.5972186,41.2038792 C34.6222865,41.2038792 38.7620833,37.0724978 38.8266956,31.9947206 C38.8438975,30.6247631 38.5065714,29.6994627 37.90744,29.1592561 C37.1027243,28.4345685 35.6917445,28.5780997 35.0133163,29.4744456 C34.3856548,30.3021282 34.4813144,31.5695043 34.4754406,31.9947206 C34.4615952,33.1003657 34.0739218,34.1170793 33.4412256,34.9306983 C32.8286683,34.1170793 32.4670078,33.1003657 32.4808533,31.9947206 C32.514418,29.3412553 34.678088,27.1829105 37.3028542,27.1829105 C39.9280401,27.1829105 42.0363282,29.3412553 42.0031829,31.9947206 C41.9809463,33.7208174 41.0570756,35.2367879 39.6914084,36.0855659 C39.5970074,36.1438883 39.3524041,36.2882468 39.159826,36.4958913 C38.994939,36.6741677 38.8770427,36.9153167 38.8241782,37.0108662 C38.0165256,38.4780278 36.8765815,39.7342358 35.5113338,40.6769088 C35.4337152,40.7306813 35.294841,40.8345036 35.3384752,40.940394 C35.3787529,41.0375981 35.6015392,41.0731706 35.6988771,41.0884751 C36.1629103,41.1641702 36.6391107,41.2038792 37.1249609,41.2038792 C42.1487702,41.2038792 46.2894061,37.0724978 46.3535988,31.9947206 C46.418211,26.9169435 42.3833042,22.7851485 37.3582362,22.7851485" id="Fill-4" fill="#F2533C"></path>
                </g>
                <g id="Group-80-Copy" transform="translate(77.257273, 0.000000)">
                    <path d="M11.4841876,5.154049 L56.8641407,5.19708227 C61.0128311,5.20814801 64.3739297,8.57243541 64.3810612,12.7211344 L64.3810612,47.9551905 C64.3810612,54.1824141 59.332899,59.2305763 53.1056754,59.2305763 L13.3634203,59.2305763 C10.2498085,59.2305764 7.72572735,56.7064952 7.72572735,53.5928834 L7.72572735,8.90894685 C7.72216494,6.83320563 9.40488567,5.1504849 11.4806269,5.1504849 C11.4818149,5.1504849 11.483003,5.15048546 11.4841876,5.154049 Z" id="Rectangle-Copy" fill="#FFAB93"></path>
                    <path d="M0,48.9296066 L0,10.3009698 C-2.4730668e-15,4.61190127 4.61190127,-7.31291905e-16 10.3009698,0 L54.0800914,0 C59.76916,-2.82142177e-15 64.3810612,4.61190127 64.3810612,10.3009698 L64.3810612,48.9296066 C64.3810612,54.6186751 59.76916,59.2305763 54.0800914,59.2305763 L10.3009698,59.2305763 C4.61190127,59.2305763 3.97326101e-15,54.6186751 0,48.9296066 Z" id="Shape" stroke="#E64C35" stroke-width="5.1504849" stroke-linecap="round" stroke-linejoin="round"></path>
                    <path d="M24.9535305,31.9947206 C24.9828996,29.6523085 26.6733062,27.6987127 28.8747366,27.2718419 L28.2978418,30.3550734 C28.1963083,30.8874211 28.1371503,31.4350732 28.1295983,31.9947206 C28.1077812,33.7522536 28.5772686,35.3952099 29.4084166,36.7937081 C26.8990293,36.6629996 24.9208048,34.5638045 24.9535305,31.9947206 M37.3582362,22.7851485 C36.1801122,22.7851485 35.0506571,23.0151292 34.0105683,23.4287638 L34.1616099,22.6221764 C34.1616099,22.6221764 35.1790424,18.2877005 31.0086178,18.0266971 C30.6759069,18.0283517 30.571856,18.1971146 30.5290609,18.4246135 L29.7125975,22.7909393 C28.576849,22.8062438 27.4885109,23.0291928 26.4836651,23.4287638 L26.6347066,22.6221764 C26.6347066,22.6221764 27.6521392,18.2877005 23.4817145,18.0266971 C23.1506819,18.027938 23.0457919,18.19546 23.0034164,18.4208908 L20.7709385,30.3550734 C20.6694051,30.8874211 20.609408,31.4350732 20.6026951,31.9947206 C20.5385024,37.0724978 24.5734092,41.2038792 29.5972186,41.2038792 C34.6222865,41.2038792 38.7620833,37.0724978 38.8266956,31.9947206 C38.8438975,30.6247631 38.5065714,29.6994627 37.90744,29.1592561 C37.1027243,28.4345685 35.6917445,28.5780997 35.0133163,29.4744456 C34.3856548,30.3021282 34.4813144,31.5695043 34.4754406,31.9947206 C34.4615952,33.1003657 34.0739218,34.1170793 33.4412256,34.9306983 C32.8286683,34.1170793 32.4670078,33.1003657 32.4808533,31.9947206 C32.514418,29.3412553 34.678088,27.1829105 37.3028542,27.1829105 C39.9280401,27.1829105 42.0363282,29.3412553 42.0031829,31.9947206 C41.9809463,33.7208174 41.0570756,35.2367879 39.6914084,36.0855659 C39.5970074,36.1438883 39.3524041,36.2882468 39.159826,36.4958913 C38.994939,36.6741677 38.8770427,36.9153167 38.8241782,37.0108662 C38.0165256,38.4780278 36.8765815,39.7342358 35.5113338,40.6769088 C35.4337152,40.7306813 35.294841,40.8345036 35.3384752,40.940394 C35.3787529,41.0375981 35.6015392,41.0731706 35.6988771,41.0884751 C36.1629103,41.1641702 36.6391107,41.2038792 37.1249609,41.2038792 C42.1487702,41.2038792 46.2894061,37.0724978 46.3535988,31.9947206 C46.418211,26.9169435 42.3833042,22.7851485 37.3582362,22.7851485" id="Fill-4" fill="#F2533C"></path>
                </g>
            </g>
        </g>
    </g>
</svg>